HIERARCHY
ROOT Hips
{
    OFFSET 0.000000 0.000000 0.000000
    CHANNELS 6 Xposition Yposition Zposition Zrotation Xrotation Yrotation
    JOINT Spine
    {
        OFFSET -0.000000 14.517291 0.000000
        CHANNELS 3 Zrotation Xrotation Yrotation
        JOINT Spine1
        {
            OFFSET -0.000000 37.558300 0.000000
            CHANNELS 3 Zrotation Xrotation Yrotation
            JOINT Neck
            {
                OFFSET -0.000000 37.404057 3.400369
                CHANNELS 3 Zrotation Xrotation Yrotation
                JOINT Head
                {
                    OFFSET -0.000000 24.785618 -3.540803
                    CHANNELS 3 Zrotation Xrotation Yrotation
                    End Site
                    {
                        OFFSET -0.000000 35.408028 0.000000
                    }
                }
            }
            JOINT LeftShoulder
            {
                OFFSET 6.992933 33.973492 -0.192664
                CHANNELS 3 Zrotation Xrotation Yrotation
                JOINT LeftArm
                {
                    OFFSET 21.527611 0.000000 0.000000
                    CHANNELS 3 Zrotation Xrotation Yrotation
                    JOINT LeftForeArm
                    {
                        OFFSET 56.353916 0.000000 0.000000
                        CHANNELS 3 Zrotation Xrotation Yrotation
                        JOINT LeftHand
                        {
                            OFFSET 47.774071 0.000000 0.000000
                            CHANNELS 3 Zrotation Xrotation Yrotation
                            End Site
                            {
                                OFFSET 26.556021 0.000000 0.000000
                            }
                        }
                    }
                }
            }
            JOINT RightShoulder
            {
                OFFSET -7.065357 33.973492 -0.192664
                CHANNELS 3 Zrotation Xrotation Yrotation
                JOINT RightArm
                {
                    OFFSET -21.527611 0.000000 0.000000
                    CHANNELS 3 Zrotation Xrotation Yrotation
                    JOINT RightForeArm
                    {
                        OFFSET -56.353916 0.000000 0.000000
                        CHANNELS 3 Zrotation Xrotation Yrotation
                        JOINT RightHand
                        {
                            OFFSET -47.774071 0.000000 0.000000
                            CHANNELS 3 Zrotation Xrotation Yrotation
                            End Site
                            {
                                OFFSET -26.556021 0.000000 0.000000
                            }
                        }
                    }
                }
            }
        }
    }
    JOINT LeftUpLeg
    {
        OFFSET 17.704014 0.000000 0.000000
        CHANNELS 3 Zrotation Xrotation Yrotation
        JOINT LeftLeg
        {
            OFFSET -0.000000 -81.181816 0.000000
            CHANNELS 3 Zrotation Xrotation Yrotation
            JOINT LeftFoot
            {
                OFFSET -0.000000 -62.821102 0.000000
                CHANNELS 3 Zrotation Xrotation Yrotation
                JOINT LeftToeBase
                {
                    OFFSET -0.000000 -11.507608 26.556021
                    CHANNELS 3 Zrotation Xrotation Yrotation
                    End Site
                    {
                        OFFSET -0.000000 0.000000 7.081605
                    }
                }
            }
        }
    }
    JOINT RightUpLeg
    {
        OFFSET -17.704014 0.000000 0.000000
        CHANNELS 3 Zrotation Xrotation Yrotation
        JOINT RightLeg
        {
            OFFSET -0.000000 -81.181816 0.000000
            CHANNELS 3 Zrotation Xrotation Yrotation
            JOINT RightFoot
            {
                OFFSET -0.000000 -62.821102 0.000000
                CHANNELS 3 Zrotation Xrotation Yrotation
                JOINT RightToeBase
                {
                    OFFSET -0.000000 -11.507608 26.556021
                    CHANNELS 3 Zrotation Xrotation Yrotation
                    End Site
                    {
                        OFFSET -0.000000 0.000000 7.081605
                    }
                }
            }
        }
    }
}
MOTION
Frames:    5
Frame Time:    0.008333
18.281734    148.024323    -104.913460    -1.818160    -7.299246    28.455429    0.680486    0.671715    -0.385817    -2.281359    3.292014    -0.061873    8.442972    3.228653    -12.931677    8.684414    1.419178    -13.369190    6.478456    7.377662    -18.722441    -25.000803    24.359047    -62.999756    2.506583    -15.107329    -95.488365    11.553150    -13.535892    -11.213755    -6.859096    -1.104856    -1.732896    24.687334    -25.007496    53.301159    -17.478537    -10.161043    61.083206    -4.268047    -1.192691    36.308430    9.476007    -14.268213    -3.351472    -23.308428    54.771610    -8.878218    22.501162    -28.931879    47.958733    0.000000    0.000000    0.000000    -28.621325    -6.602557    -11.021040    8.466494    19.520575    -11.059491    22.046259    14.101793    -29.291941    0.000000    0.000000    0.000000    
18.222809    148.059631    -104.909325    -1.798016    -7.305743    28.436888    0.664361    0.681554    -0.382221    -2.291933    3.309396    -0.059790    8.434750    3.228832    -12.942318    8.688156    1.432660    -13.379848    6.459496    7.408627    -18.719141    -25.007227    24.368851    -63.023350    2.505207    -15.120003    -95.473724    11.617216    -13.550735    -11.150036    -6.868144    -1.080295    -1.746990    24.722326    -25.015690    53.342331    -17.503084    -10.171744    61.147556    -4.259700    -1.171575    36.290295    9.494300    -14.226053    -3.304874    -23.245150    54.708748    -8.915258    22.435913    -28.923075    47.903584    0.000000    0.000000    0.000000    -28.607941    -6.604041    -10.986528    8.460217    19.508734    -11.041302    22.036869    14.111626    -29.295197    0.000000    0.000000    0.000000    
18.172045    148.099274    -104.908661    -1.773117    -7.316582    28.427271    0.646725    0.703568    -0.381262    -2.304743    3.309423    -0.059414    8.466193    3.224086    -12.945309    8.637571    1.463011    -13.395832    6.444858    7.442475    -18.725304    -25.023283    24.385086    -63.049549    2.521899    -15.132069    -95.443039    11.643706    -13.544836    -11.107960    -6.861703    -1.069899    -1.757367    24.721741    -24.991123    53.358864    -17.545918    -10.192555    61.194122    -4.269000    -1.159975    36.298908    9.506783    -14.178645    -3.294038    -23.217405    54.631882    -8.910545    22.371733    -28.904144    47.835243    0.000000    0.000000    0.000000    -28.602243    -6.589473    -10.923911    8.461195    19.486317    -10.991221    22.071186    14.099228    -29.350603    0.000000    0.000000    0.000000    
18.111048    148.136993    -104.908325    -1.767735    -7.316805    28.410269    0.642533    0.701220    -0.387031    -2.322355    3.319575    -0.060516    8.462195    3.217836    -12.947477    8.638896    1.497577    -13.400505    6.429313    7.464764    -18.713175    -25.029535    24.406374    -63.063202    2.499832    -15.147884    -95.442924    11.624777    -13.584608    -11.128961    -6.868926    -1.052004    -1.755772    24.750732    -24.986475    53.390266    -17.572300    -10.194712    61.250362    -4.283011    -1.139157    36.300014    9.544083    -14.150083    -3.271236    -23.205290    54.555466    -8.912382    22.314411    -28.885900    47.774418    0.000000    0.000000    0.000000    -28.573391    -6.598057    -10.859202    8.449693    19.461000    -10.972632    22.091570    14.093685    -29.398846    0.000000    0.000000    0.000000    
18.057138    148.174026    -104.913689    -1.764953    -7.308966    28.401915    0.646922    0.693469    -0.399689    -2.348741    3.325325    -0.063856    8.457902    3.198389    -12.943267    8.624126    1.546893    -13.402626    6.420136    7.485135    -18.692715    -25.033295    24.432638    -63.080601    2.484601    -15.167020    -95.459648    11.536017    -13.611764    -11.136871    -6.873663    -1.044744    -1.756798    24.779760    -24.980944    53.424160    -17.583452    -10.190883    61.314285    -4.272338    -1.110837    36.287472    9.568233    -14.132852    -3.242919    -23.177515    54.481544    -8.907989    22.249655    -28.874897    47.718758    0.000000    0.000000    0.000000    -28.554094    -6.607794    -10.786624    8.445435    19.431789    -10.976698    22.144112    14.103191    -29.439079    0.000000    0.000000    0.000000    
